# xmcd CD database file
#
# Track frame offsets:
#	150
#	14229
#	28039
#	41081
#	54621
#	68066
#	81209
#	94408
#	108650
#	120856
#	131665
#	145556
#	158945
#	172232
#	186145
#	199394
#	212919
#
# Disc length: 3034 seconds
#
# Revision: 0
# Processed by: cddbd v1.5.2PL0 Copyright (c) Steve Scherf et al.
# Submitted via: CDex 1.51
#
DISCID=010bd811
DTITLE=Firehouse Five plus Two - Dixieland Greatest Hits [CD 1]
DYEAR=2013
DGENRE=Jazz
TTITLE0=St. Louis Blues
TTITLE1=Tiger Rag
TTITLE2=Just A Stomp At Twilight
TTITLE3=Yes Sir, That's My Baby
TTITLE4=Riverside Blues
TTITLE5=Everybody Loves my Baby
TTITLE6=Firehouse Stomp
TTITLE7=Fireman's Lament
TTITLE8=Red Hot River Valley
TTITLE9=Chinatown, My Chinatown
TTITLE10=Sweet Georgia Brown
TTITLE11=The World Is Waiting For The Sunrise
TTITLE12=Pagan Love Song
TTITLE13=Down Where The Sun Goes Down
TTITLE14=12th Street Rag
TTITLE15=Copenhagen
TTITLE16=Southern Comfort
EXTD=YEAR: 2013
EXTT0=
EXTT1=
EXTT2=
EXTT3=
EXTT4=
EXTT5=
EXTT6=
EXTT7=
EXTT8=
EXTT9=
EXTT10=
EXTT11=
EXTT12=
EXTT13=
EXTT14=
EXTT15=
EXTT16=
PLAYORDER=
